<svg width="44" height="44" viewBox="0 0 44 44" fill="none" xmlns="http://www.w3.org/2000/svg">
<rect width="44" height="44" rx="22" fill="url(#paint0_linear_995_15100)"/>
<g clip-path="url(#clip0_995_15100)">
<path d="M31 25.5979V28.0525C30.1818 28.0525 29.3636 26.8252 29.3636 24.7797V22.3252C26.0909 26.4161 25.2727 28.0525 25.2727 29.6888C25.2726 30.4919 25.5088 31.2772 25.952 31.9469C26.3952 32.6166 27.0257 33.1411 27.7649 33.4549C28.0149 32.3433 28.5683 31.3229 29.3636 30.507C30.1589 31.3229 30.7123 32.3433 30.9623 33.4549C31.7015 33.1411 32.332 32.6166 32.7752 31.9469C33.2183 31.2772 33.4546 30.4919 33.4545 29.6888C33.4545 28.0525 32.534 26.7671 31 25.5979ZM22.8181 31.8186H12.1818V28.5458H22.8181V26.9095H12.1818C11.7479 26.9099 11.332 27.0824 11.0252 27.3892C10.7184 27.696 10.5458 28.112 10.5454 28.5458V31.8186C10.5458 32.2524 10.7184 32.6684 11.0252 32.9752C11.332 33.2819 11.7479 33.4545 12.1818 33.4549H22.8181V31.8186Z" fill="#FAFAFA"/>
<path d="M31.8181 18.7277H14.6363C14.2025 18.7281 13.7865 18.9007 13.4797 19.2075C13.1729 19.5143 13.0004 19.9302 13 20.3641V23.6368C13.0004 24.0707 13.1729 24.4866 13.4797 24.7934C13.7865 25.1002 14.2025 25.2727 14.6363 25.2732H22.8181V23.6368H14.6363V20.3641H31.8181L31.819 22.0004H33.4545V20.3641C33.4541 19.9302 33.2815 19.5143 32.9747 19.2075C32.668 18.9007 32.252 18.7281 31.8181 18.7277ZM29.3636 17.0914H12.1818C11.7479 17.0909 11.332 16.9184 11.0252 16.6116C10.7184 16.3048 10.5458 15.8888 10.5454 15.455V12.1823C10.5458 11.7484 10.7184 11.3324 11.0252 11.0257C11.332 10.7189 11.7479 10.5463 12.1818 10.5459H29.3636C29.7974 10.5463 30.2134 10.7189 30.5202 11.0257C30.827 11.3324 30.9995 11.7484 31 12.1823V15.455C30.9995 15.8888 30.827 16.3048 30.5202 16.6116C30.2134 16.9184 29.7974 17.0909 29.3636 17.0914ZM12.1818 12.1823V15.455H29.3636V12.1823H12.1818Z" fill="#FAFAFA"/>
</g>
<defs>
<linearGradient id="paint0_linear_995_15100" x1="22" y1="0" x2="22" y2="44" gradientUnits="userSpaceOnUse">
<stop stop-color="#FFB0BA"/>
<stop offset="1" stop-color="#FFC2A0"/>
</linearGradient>
<clipPath id="clip0_995_15100">
<rect width="24" height="24" fill="white" transform="translate(10 10)"/>
</clipPath>
</defs>
</svg>
