<svg width="44" height="44" viewBox="0 0 44 44" fill="none" xmlns="http://www.w3.org/2000/svg">
<rect width="44" height="44" rx="22" fill="url(#paint0_linear_995_15084)"/>
<path d="M26.5 20.4531H17.5C17.3969 20.4531 17.3125 20.5375 17.3125 20.6406V30.0625C17.3125 30.1656 17.3969 30.25 17.5 30.25H26.5C26.6031 30.25 26.6875 30.1656 26.6875 30.0625V20.6406C26.6875 20.5375 26.6031 20.4531 26.5 20.4531ZM18.8125 21.9531H25.1875V24.6953H18.8125V21.9531ZM25.1875 28.75H18.8125V26.0078H25.1875V28.75Z" fill="#FAFAFA"/>
<path d="M19.9375 27.5312C19.9375 27.7302 20.0165 27.9209 20.1572 28.0616C20.2978 28.2022 20.4886 28.2812 20.6875 28.2812C20.8864 28.2812 21.0772 28.2022 21.2178 28.0616C21.3585 27.9209 21.4375 27.7302 21.4375 27.5312C21.4375 27.3323 21.3585 27.1416 21.2178 27.0009C21.0772 26.8603 20.8864 26.7812 20.6875 26.7812C20.4886 26.7812 20.2978 26.8603 20.1572 27.0009C20.0165 27.1416 19.9375 27.3323 19.9375 27.5312ZM19.9375 23.3594C19.9375 23.5583 20.0165 23.7491 20.1572 23.8897C20.2978 24.0304 20.4886 24.1094 20.6875 24.1094C20.8864 24.1094 21.0772 24.0304 21.2178 23.8897C21.3585 23.7491 21.4375 23.5583 21.4375 23.3594C21.4375 23.1605 21.3585 22.9697 21.2178 22.829C21.0772 22.6884 20.8864 22.6094 20.6875 22.6094C20.4886 22.6094 20.2978 22.6884 20.1572 22.829C20.0165 22.9697 19.9375 23.1605 19.9375 23.3594Z" fill="#FAFAFA"/>
<path d="M29.0171 18.6461C27.9437 15.8125 25.2085 13.7969 22.0046 13.7969C18.8007 13.7969 16.0656 15.8102 14.9921 18.6437C12.9742 19.1758 11.4882 21.0203 11.4999 23.2094C11.514 25.6562 13.4124 27.6461 15.8031 27.8594C15.9132 27.8687 16.007 27.782 16.007 27.6719V26.2562C16.007 26.1625 15.9367 26.0828 15.8429 26.0711C15.2101 25.9914 14.6124 25.7148 14.1531 25.2625C13.5906 24.7117 13.2812 23.9711 13.2812 23.1859C13.2812 22.5297 13.4945 21.9109 13.8953 21.3953C14.2867 20.8938 14.8374 20.5305 15.4445 20.3711L16.3328 20.1367L16.6585 19.2766C16.8601 18.7422 17.1414 18.2406 17.4953 17.7883C17.8445 17.3383 18.2593 16.9445 18.7234 16.6164C19.6867 15.9391 20.821 15.5805 22.0046 15.5805C23.1882 15.5805 24.3226 15.9391 25.2859 16.6187C25.7523 16.9469 26.1648 17.3406 26.514 17.7906C26.8679 18.243 27.1492 18.7445 27.3507 19.2789L27.6742 20.1367L28.5601 20.3711C29.8304 20.7086 30.7187 21.8641 30.7187 23.1836C30.7187 23.9711 30.4093 24.7094 29.8468 25.2602C29.3898 25.7102 28.7945 25.9891 28.1617 26.0687C28.0679 26.0805 27.9999 26.1602 27.9999 26.2539V27.6719C27.9999 27.782 28.096 27.8687 28.2062 27.8594C30.5898 27.6438 32.4835 25.6562 32.4999 23.2141C32.514 21.025 31.0304 19.1805 29.0171 18.6461Z" fill="#FAFAFA"/>
<defs>
<linearGradient id="paint0_linear_995_15084" x1="22" y1="0" x2="22" y2="44" gradientUnits="userSpaceOnUse">
<stop stop-color="#FFAD32"/>
<stop offset="1" stop-color="#FFCB33"/>
</linearGradient>
</defs>
</svg>
