<svg width="44" height="44" viewBox="0 0 44 44" fill="none" xmlns="http://www.w3.org/2000/svg">
<rect width="44" height="44" rx="22" fill="url(#paint0_linear_995_15092)"/>
<path d="M29.32 19.9998H14.69C13.21 19.9998 12.01 18.7898 12.01 17.3198V14.6898C12.01 13.2098 13.22 12.0098 14.69 12.0098H29.32C30.8 12.0098 32 13.2198 32 14.6898V17.3198C32 18.7898 30.79 19.9998 29.32 19.9998Z" stroke="#FAFAFA" stroke-width="1.5" stroke-linecap="round" stroke-linejoin="round"/>
<path d="M29.32 31.9998H14.69C13.21 31.9998 12.01 30.7898 12.01 29.3198V26.6898C12.01 25.2098 13.22 24.0098 14.69 24.0098H29.32C30.8 24.0098 32 25.2198 32 26.6898V29.3198C32 30.7898 30.79 31.9998 29.32 31.9998Z" stroke="#FAFAFA" stroke-width="1.5" stroke-linecap="round" stroke-linejoin="round"/>
<path d="M16 15V17" stroke="#FAFAFA" stroke-width="1.5" stroke-linecap="round" stroke-linejoin="round"/>
<path d="M20 15V17" stroke="#FAFAFA" stroke-width="1.5" stroke-linecap="round" stroke-linejoin="round"/>
<path d="M16 27V29" stroke="#FAFAFA" stroke-width="1.5" stroke-linecap="round" stroke-linejoin="round"/>
<path d="M20 27V29" stroke="#FAFAFA" stroke-width="1.5" stroke-linecap="round" stroke-linejoin="round"/>
<path d="M24 16H28" stroke="#FAFAFA" stroke-width="1.5" stroke-linecap="round" stroke-linejoin="round"/>
<path d="M24 28H28" stroke="#FAFAFA" stroke-width="1.5" stroke-linecap="round" stroke-linejoin="round"/>
<defs>
<linearGradient id="paint0_linear_995_15092" x1="0" y1="21.9617" x2="44" y2="21.9617" gradientUnits="userSpaceOnUse">
<stop stop-color="#C9184A"/>
<stop offset="1" stop-color="#FF8FA3"/>
</linearGradient>
</defs>
</svg>
