<svg width="44" height="44" viewBox="0 0 44 44" fill="none" xmlns="http://www.w3.org/2000/svg">
<rect width="44" height="44" rx="22" fill="url(#paint0_linear_995_15056)"/>
<path d="M30.9289 17.2434C31.1814 17.2434 31.3861 17.0387 31.3861 16.7862C31.3861 16.5338 31.1814 16.3291 30.9289 16.3291C30.6765 16.3291 30.4718 16.5338 30.4718 16.7862C30.4718 17.0387 30.6765 17.2434 30.9289 17.2434Z" fill="#FAFAFA" stroke="#FAFAFA" stroke-width="0.2"/>
<path d="M29.4997 17.2434C29.7522 17.2434 29.9569 17.0387 29.9569 16.7862C29.9569 16.5338 29.7522 16.3291 29.4997 16.3291C29.2473 16.3291 29.0426 16.5338 29.0426 16.7862C29.0426 17.0387 29.2473 17.2434 29.4997 17.2434Z" fill="#FAFAFA" stroke="#FAFAFA" stroke-width="0.2"/>
<path d="M28.0715 17.2434C28.324 17.2434 28.5286 17.0387 28.5286 16.7862C28.5286 16.5338 28.324 16.3291 28.0715 16.3291C27.819 16.3291 27.6144 16.5338 27.6144 16.7862C27.6144 17.0387 27.819 17.2434 28.0715 17.2434Z" fill="#FAFAFA" stroke="#FAFAFA" stroke-width="0.2"/>
<path d="M13.0715 30.1004H31.6429C32.2899 30.1004 32.8143 29.576 32.8143 28.929V16.0718C32.8143 15.4248 32.2899 14.9004 31.6429 14.9004H13.0715C12.4244 14.9004 11.9 15.4248 11.9 16.0718V28.929C11.9 29.576 12.4244 30.1004 13.0715 30.1004ZM31.9 18.6718V28.929C31.9 29.0708 31.7847 29.1861 31.6429 29.1861H13.0715C12.9296 29.1861 12.8143 29.0708 12.8143 28.929V18.6718H31.9ZM31.9 17.7575H12.8143V16.0718C12.8143 15.93 12.9296 15.8147 13.0715 15.8147H31.6429C31.7847 15.8147 31.9 15.93 31.9 16.0718V17.7575Z" fill="#FAFAFA" stroke="#FAFAFA" stroke-width="0.2"/>
<g clip-path="url(#clip0_995_15056)">
<path fill-rule="evenodd" clip-rule="evenodd" d="M18.5625 23.5C18.5625 24.5443 18.9773 25.5458 19.7158 26.2842C20.4542 27.0227 21.4557 27.4375 22.5 27.4375C23.5443 27.4375 24.5458 27.0227 25.2842 26.2842C26.0227 25.5458 26.4375 24.5443 26.4375 23.5C26.4375 22.4557 26.0227 21.4542 25.2842 20.7158C24.5458 19.9773 23.5443 19.5625 22.5 19.5625C21.4557 19.5625 20.4542 19.9773 19.7158 20.7158C18.9773 21.4542 18.5625 22.4557 18.5625 23.5ZM25.7625 23.5C25.7625 24.3653 25.4188 25.1951 24.8069 25.8069C24.1951 26.4188 23.3653 26.7625 22.5 26.7625C21.6347 26.7625 20.8049 26.4188 20.1931 25.8069C19.5812 25.1951 19.2375 24.3653 19.2375 23.5C19.2375 22.6347 19.5812 21.8049 20.1931 21.1931C20.8049 20.5812 21.6347 20.2375 22.5 20.2375C23.3653 20.2375 24.1951 20.5812 24.8069 21.1931C25.4188 21.8049 25.7625 22.6347 25.7625 23.5Z" fill="#FAFAFA"/>
<path fill-rule="evenodd" clip-rule="evenodd" d="M20.8125 23.4996C20.8125 25.5345 21.4834 27.2121 22.5 27.2121C23.5166 27.2121 24.1875 25.5345 24.1875 23.4996C24.1875 21.4647 23.5166 19.7871 22.5 19.7871C21.4834 19.7871 20.8125 21.4647 20.8125 23.4996ZM23.5125 23.4996C23.5125 25.1925 22.9747 26.5371 22.5 26.5371C22.0252 26.5371 21.4875 25.1925 21.4875 23.4996C21.4875 21.8067 22.0252 20.4621 22.5 20.4621C22.9747 20.4621 23.5125 21.8067 23.5125 23.4996Z" fill="#FAFAFA"/>
<path d="M19.6209 21.4604L20.0736 20.96C20.1186 21.0005 20.1676 21.041 20.2198 21.0801C20.7918 21.5085 21.7048 21.7731 22.7016 21.7731C23.5525 21.7731 24.345 21.581 24.9205 21.252C25.0591 21.1728 25.1824 21.0869 25.2891 20.9955L25.7274 21.509C25.5809 21.6332 25.423 21.7432 25.2558 21.8375C24.5736 22.2281 23.6655 22.4477 22.7016 22.4477C21.5667 22.4477 20.5123 22.1426 19.8148 21.6201C19.7478 21.5699 19.683 21.5166 19.6209 21.4604ZM19.6209 25.5473L20.0736 26.0477C20.1186 26.0067 20.1676 25.9667 20.2198 25.9275C20.7918 25.4991 21.7048 25.2345 22.7016 25.2345C23.5525 25.2345 24.345 25.4267 24.9205 25.7556C25.0591 25.8348 25.1824 25.9208 25.2891 26.0121L25.7274 25.4987C25.5808 25.3747 25.4229 25.2647 25.2558 25.1702C24.5736 24.7796 23.6655 24.56 22.7016 24.56C21.5667 24.56 20.5123 24.8651 19.8148 25.3875C19.7478 25.4378 19.683 25.4911 19.6209 25.5473ZM18.7875 23.8377V23.1627H26.2125V23.8377H18.7875Z" fill="#FAFAFA"/>
</g>
<defs>
<linearGradient id="paint0_linear_995_15056" x1="0" y1="21.9617" x2="44" y2="21.9617" gradientUnits="userSpaceOnUse">
<stop stop-color="#4361EE"/>
<stop offset="1" stop-color="#4CC9F0"/>
</linearGradient>
<clipPath id="clip0_995_15056">
<rect width="9" height="9" fill="white" transform="translate(18 19)"/>
</clipPath>
</defs>
</svg>
