<svg width="18" height="22" viewBox="0 0 18 22" fill="none" xmlns="http://www.w3.org/2000/svg">
<path d="M11.7808 18.8053L11.2019 18.3285L11.7808 18.8053ZM6.21921 18.8053L5.64028 19.2822L6.21921 18.8053ZM9 21V20.25V21ZM16.25 9.19662C16.25 10.3445 15.6189 11.8947 14.6118 13.59C13.6233 15.2539 12.3451 16.9404 11.2019 18.3285L12.3597 19.2822C13.5262 17.8658 14.8577 16.113 15.9014 14.3561C16.9264 12.6307 17.75 10.7787 17.75 9.19662H16.25ZM6.79813 18.3285C5.65488 16.9404 4.37672 15.2539 3.38825 13.59C2.3811 11.8947 1.75 10.3445 1.75 9.19662H0.25C0.25 10.7787 1.07363 12.6307 2.09864 14.3561C3.14233 16.113 4.47378 17.8658 5.64028 19.2822L6.79813 18.3285ZM1.75 9.19662C1.75 5.06669 5.013 1.75 9 1.75V0.25C4.15045 0.25 0.25 4.27281 0.25 9.19662H1.75ZM9 1.75C12.987 1.75 16.25 5.06669 16.25 9.19662H17.75C17.75 4.27281 13.8496 0.25 9 0.25V1.75ZM11.2019 18.3285C10.5826 19.0804 10.1764 19.5696 9.81285 19.8841C9.48281 20.1695 9.25632 20.25 9 20.25V21.75C9.71691 21.75 10.2783 21.4647 10.7941 21.0186C11.2763 20.6015 11.774 19.9934 12.3597 19.2822L11.2019 18.3285ZM5.64028 19.2822C6.22604 19.9934 6.72368 20.6015 7.20591 21.0186C7.7217 21.4647 8.28309 21.75 9 21.75V20.25C8.74368 20.25 8.51719 20.1695 8.18715 19.8841C7.82355 19.5696 7.41741 19.0804 6.79813 18.3285L5.64028 19.2822ZM5.25 9.56919C5.25 11.5952 6.96402 13.1756 9 13.1756V11.6756C7.72227 11.6756 6.75 10.6983 6.75 9.56919H5.25ZM9 13.1756C11.036 13.1756 12.75 11.5952 12.75 9.56919H11.25C11.25 10.6983 10.2777 11.6756 9 11.6756V13.1756ZM12.75 9.56919C12.75 7.54319 11.036 5.9628 9 5.9628V7.4628C10.2777 7.4628 11.25 8.4401 11.25 9.56919H12.75ZM9 5.9628C6.96402 5.9628 5.25 7.54319 5.25 9.56919H6.75C6.75 8.4401 7.72227 7.4628 9 7.4628V5.9628Z" fill="#00ACD7"/>
</svg>
