<svg width="22" height="22" viewBox="0 0 22 22" fill="none" xmlns="http://www.w3.org/2000/svg">
<path d="M21.9714 10.9876C21.9689 8.8929 21.3669 6.84269 20.2365 5.07924C19.106 3.31578 17.4944 1.91278 15.592 1.03606C13.6896 0.159327 11.576 -0.154488 9.501 0.131691C7.42596 0.41787 5.4762 1.29208 3.88216 2.65102C2.28811 4.00996 1.1164 5.79682 0.505484 7.80043C-0.105429 9.80405 -0.130007 11.9407 0.434658 13.9578C0.999323 15.975 2.12963 17.7883 3.692 19.1835C5.25436 20.5788 7.18349 21.4976 9.2514 21.8314V14.1619H6.46727V10.9876H9.2514V8.58618C9.2514 5.83957 10.8949 4.31618 13.4013 4.31618C14.2236 4.32773 15.0438 4.40047 15.8553 4.53381V7.23539H14.467C14.2312 7.20426 13.9915 7.22638 13.7654 7.30012C13.5393 7.37386 13.3326 7.49735 13.1605 7.66149C12.9885 7.82564 12.8554 8.02627 12.7711 8.24863C12.6868 8.47099 12.6534 8.70943 12.6734 8.94639V10.9876H15.7202L15.2174 14.1619H12.6809V21.8314C15.2675 21.4273 17.6248 20.1128 19.3281 18.1247C21.0314 16.1366 21.9688 13.6056 21.9714 10.9876Z" fill="url(#paint0_linear_961_12306)"/>
<defs>
<linearGradient id="paint0_linear_961_12306" x1="3.21036" y1="3.23555" x2="18.7295" y2="18.7471" gradientUnits="userSpaceOnUse">
<stop stop-color="#4676ED"/>
<stop offset="0.19" stop-color="#436DE4"/>
<stop offset="0.49" stop-color="#3C55CD"/>
<stop offset="0.87" stop-color="#302EA8"/>
<stop offset="1" stop-color="#2B1E99"/>
</linearGradient>
</defs>
</svg>
