<svg width="24" height="24" viewBox="0 0 24 24" fill="none" xmlns="http://www.w3.org/2000/svg">
<path d="M20.25 21.75H9.75C8.925 21.75 8.25 21.075 8.25 20.25V17.25H9.75V20.25H20.25V9.75H17.25V8.25H20.25C21.075 8.25 21.75 8.925 21.75 9.75V20.25C21.75 21.075 21.075 21.75 20.25 21.75Z" fill="#00ACD7"/>
<path d="M8.25 14.25H15.75V15.75H8.25V14.25ZM8.25 11.25H15.75V12.75H8.25V11.25ZM8.25 8.25H15.75V9.75H8.25V8.25Z" fill="#00ACD7"/>
<path d="M3.75 2.25H14.25C15.075 2.25 15.75 2.925 15.75 3.75V6.75H14.25V3.75H3.75V14.25H6.75V15.75H3.75C2.925 15.75 2.25 15.075 2.25 14.25V3.75C2.25 2.925 2.925 2.25 3.75 2.25Z" fill="#00ACD7"/>
</svg>
