<svg width="24" height="24" viewBox="0 0 24 24" fill="none" xmlns="http://www.w3.org/2000/svg">
<path d="M20.9289 7.243C21.1814 7.243 21.3861 7.03831 21.3861 6.78585C21.3861 6.5334 21.1814 6.32871 20.9289 6.32871C20.6765 6.32871 20.4718 6.5334 20.4718 6.78585C20.4718 7.03831 20.6765 7.243 20.9289 7.243Z" fill="#00ACD7" stroke="#00ACD7" stroke-width="0.2"/>
<path d="M19.4997 7.243C19.7522 7.243 19.9569 7.03831 19.9569 6.78585C19.9569 6.5334 19.7522 6.32871 19.4997 6.32871C19.2473 6.32871 19.0426 6.5334 19.0426 6.78585C19.0426 7.03831 19.2473 7.243 19.4997 7.243Z" fill="#00ACD7" stroke="#00ACD7" stroke-width="0.2"/>
<path d="M18.0715 7.243C18.324 7.243 18.5286 7.03831 18.5286 6.78585C18.5286 6.5334 18.324 6.32871 18.0715 6.32871C17.819 6.32871 17.6144 6.5334 17.6144 6.78585C17.6144 7.03831 17.819 7.243 18.0715 7.243Z" fill="#00ACD7" stroke="#00ACD7" stroke-width="0.2"/>
<path d="M3.07143 20.1H21.6429C22.2899 20.1 22.8143 19.5756 22.8143 18.9286V6.07143C22.8143 5.42436 22.2899 4.9 21.6429 4.9H3.07143C2.42436 4.9 1.9 5.42436 1.9 6.07143V18.9286C1.9 19.5756 2.42436 20.1 3.07143 20.1ZM21.9 8.67143V18.9286C21.9 19.0704 21.7847 19.1857 21.6429 19.1857H3.07143C2.92959 19.1857 2.81429 19.0704 2.81429 18.9286V8.67143H21.9ZM21.9 7.75714H2.81429V6.07143C2.81429 5.92959 2.92959 5.81429 3.07143 5.81429H21.6429C21.7847 5.81429 21.9 5.92959 21.9 6.07143V7.75714Z" fill="#00ACD7" stroke="#00ACD7" stroke-width="0.2"/>
<path d="M10.2211 14.2852V14.385H10.1294M10.2211 14.2852L10.1207 14.285L10.1214 14.2929C10.1237 14.3236 10.1264 14.3543 10.1294 14.385M10.2211 14.2852C10.2582 14.7605 10.3622 15.2373 10.5339 15.7155M10.2211 14.2852L9.28562 16.3768M10.1294 14.385H8.55529C8.63788 15.0778 8.90572 15.714 9.30785 16.2427M10.1294 14.385C10.17 14.8089 10.2628 15.2336 10.408 15.6586M10.408 15.6586C10.0416 15.8106 9.67492 16.0051 9.30785 16.2427M10.408 15.6586C10.4183 15.6888 10.4289 15.719 10.4398 15.7493L10.5339 15.7155M10.408 15.6586C10.4377 15.6463 10.4674 15.6342 10.4971 15.6225L10.5339 15.7155M9.30785 16.2427C9.28201 16.2594 9.25617 16.2763 9.23033 16.2935L9.28562 16.3768M9.30785 16.2427C9.32621 16.2668 9.34485 16.2907 9.36376 16.3144L9.28562 16.3768M9.28562 16.3768C9.70317 16.0997 10.1192 15.8797 10.5339 15.7155M13.9705 16.5111C14.232 16.6185 14.4932 16.7522 14.7545 16.9118C14.3234 17.2589 13.8157 17.5145 13.2612 17.6489C13.5415 17.2711 13.7779 16.8917 13.9705 16.5111ZM13.0777 16.2462C12.8849 16.6031 12.6465 16.9603 12.3626 17.3182C12.086 16.9583 11.8519 16.6005 11.6605 16.2445C12.1354 16.1592 12.6076 16.1604 13.0777 16.2462ZM11.0487 14.385H13.6731C13.6401 14.7169 13.5681 15.0483 13.4572 15.3795C12.7355 15.2116 12.0088 15.2092 11.2777 15.3778C11.1632 15.0458 11.0868 14.715 11.0487 14.385ZM8.55525 13.4707C8.63784 12.7783 8.90527 12.1427 9.30697 11.6141C9.6652 11.8478 10.0251 12.0412 10.3869 12.1929C10.2452 12.6177 10.1571 13.0437 10.1223 13.4707H8.55525ZM14.3055 12.1972C14.6719 12.0453 15.0386 11.8507 15.4057 11.6131C15.8078 12.1418 16.0756 12.7779 16.1582 13.4707H14.5841C14.5434 13.0468 14.4506 12.6222 14.3055 12.1972ZM13.6649 13.4707H11.0405C11.0734 13.1388 11.1454 12.8074 11.2564 12.4761C11.9781 12.6441 12.7048 12.6464 13.4358 12.4778C13.5503 12.8098 13.6267 13.1407 13.6649 13.4707ZM13.0531 11.6113C12.5782 11.6966 12.106 11.6954 11.6359 11.6096C11.8287 11.2527 12.0671 10.8955 12.351 10.5376C12.6276 10.8975 12.8617 11.2554 13.0531 11.6113ZM13.2409 10.202C13.8028 10.335 14.317 10.592 14.7532 10.9427C14.483 11.1065 14.2145 11.2421 13.9473 11.3502C13.754 10.9676 13.5187 10.5848 13.2409 10.202ZM12.3567 9.18516C9.73901 9.18516 7.61387 11.3103 7.61387 13.928C7.61387 16.5457 9.73901 18.6709 12.3567 18.6709C14.9744 18.6709 17.0996 16.5457 17.0996 13.928C17.0996 11.3103 14.9744 9.18516 12.3567 9.18516ZM11.4727 17.6538C10.9108 17.5208 10.3966 17.2638 9.96039 16.9131C10.2306 16.7493 10.4991 16.6137 10.7663 16.5057C10.9596 16.8882 11.1949 17.2711 11.4727 17.6538ZM14.3266 15.6628C14.4682 15.2379 14.5564 14.812 14.5912 14.385H16.1583C16.0758 15.0774 15.8083 15.713 15.4066 16.2416C15.0483 16.0079 14.6884 15.8145 14.3266 15.6628ZM9.95891 10.9441C10.39 10.5969 10.8978 10.3413 11.4524 10.2069C11.1721 10.5847 10.9357 10.9642 10.743 11.3448C10.4815 11.2374 10.2203 11.1036 9.95891 10.9441Z" fill="#00ACD7" stroke="#00ACD7" stroke-width="0.2"/>
</svg>
