<svg width="22" height="23" viewBox="0 0 22 23" fill="none" xmlns="http://www.w3.org/2000/svg">
<path d="M10.9999 22.2856C17.0593 22.2856 21.9714 17.3736 21.9714 11.3142C21.9714 5.25485 17.0593 0.342773 10.9999 0.342773C4.94058 0.342773 0.0285034 5.25485 0.0285034 11.3142C0.0285034 17.3736 4.94058 22.2856 10.9999 22.2856Z" fill="url(#paint0_linear_961_12315)"/>
<path d="M10.9999 22.2856C17.0593 22.2856 21.9714 17.3736 21.9714 11.3142C21.9714 5.25485 17.0593 0.342773 10.9999 0.342773C4.94058 0.342773 0.0285034 5.25485 0.0285034 11.3142C0.0285034 17.3736 4.94058 22.2856 10.9999 22.2856Z" fill="black" fill-opacity="0.2"/>
<path d="M14.4069 7.16455C14.2584 7.16455 14.1134 7.20856 13.9899 7.29102C13.8665 7.37348 13.7704 7.49069 13.7136 7.62781C13.6568 7.76494 13.6419 7.91582 13.6709 8.06139C13.6998 8.20697 13.7713 8.34068 13.8762 8.44563C13.9812 8.55058 14.1149 8.62205 14.2605 8.65101C14.406 8.67996 14.5569 8.6651 14.6941 8.6083C14.8312 8.5515 14.9484 8.45532 15.0308 8.33191C15.1133 8.2085 15.1573 8.06341 15.1573 7.91499C15.1573 7.71596 15.0782 7.52508 14.9375 7.38435C14.7968 7.24361 14.6059 7.16455 14.4069 7.16455Z" fill="white"/>
<path d="M11.0525 8.14747C10.4233 8.146 9.808 8.33149 9.28451 8.68039C8.76102 9.02929 8.35302 9.52588 8.11228 10.1071C7.87154 10.6883 7.80894 11.328 7.93241 11.9448C8.05588 12.5617 8.35985 13.128 8.80575 13.5718C9.25165 14.0155 9.81936 14.3168 10.4368 14.4374C11.0543 14.5579 11.6936 14.4923 12.2737 14.2488C12.8537 14.0053 13.3484 13.5949 13.6948 13.0698C14.0412 12.5446 14.2238 11.9284 14.2193 11.2993C14.2134 10.4626 13.8773 9.66212 13.2843 9.07188C12.6913 8.48165 11.8892 8.14943 11.0525 8.14747ZM11.0525 13.348C10.6499 13.3495 10.256 13.2315 9.92056 13.0089C9.58513 12.7864 9.3233 12.4693 9.16823 12.0978C9.01315 11.7263 8.9718 11.3172 9.04943 10.9222C9.12705 10.5272 9.32014 10.1641 9.60426 9.87896C9.88837 9.59379 10.2507 9.39936 10.6454 9.32028C11.0401 9.2412 11.4494 9.28103 11.8215 9.43473C12.1935 9.58844 12.5116 9.84909 12.7354 10.1837C12.9592 10.5183 13.0786 10.9118 13.0786 11.3143C13.0728 11.8492 12.8572 12.3604 12.4782 12.7379C12.0993 13.1154 11.5873 13.3291 11.0525 13.333V13.348Z" fill="white"/>
<path d="M13.5665 17.7382H8.43349C7.4091 17.7362 6.42724 17.3284 5.70288 16.6041C4.97853 15.8797 4.57071 14.8978 4.56873 13.8734V8.73293C4.57071 7.70854 4.97853 6.72667 5.70288 6.00232C6.42724 5.27797 7.4091 4.87015 8.43349 4.86816H13.5665C14.5909 4.87015 15.5728 5.27797 16.2971 6.00232C17.0215 6.72667 17.4293 7.70854 17.4313 8.73293V13.8734C17.4293 14.8978 17.0215 15.8797 16.2971 16.6041C15.5728 17.3284 14.5909 17.7362 13.5665 17.7382ZM8.43349 6.07637C7.72954 6.07835 7.05498 6.35887 6.55721 6.85665C6.05944 7.35442 5.77891 8.02898 5.77693 8.73293V13.8734C5.77892 14.5767 6.05969 15.2505 6.55767 15.7471C7.05566 16.2436 7.73023 16.5225 8.43349 16.5225H13.5665C14.2698 16.5225 14.9443 16.2436 15.4423 15.7471C15.9403 15.2505 16.2211 14.5767 16.2231 13.8734V8.73293C16.2211 8.02898 15.9406 7.35442 15.4428 6.85665C14.945 6.35887 14.2705 6.07835 13.5665 6.07637H8.43349Z" fill="white"/>
<defs>
<linearGradient id="paint0_linear_961_12315" x1="18.7595" y1="3.55466" x2="3.24039" y2="19.0738" gradientUnits="userSpaceOnUse">
<stop stop-color="#FBE18A"/>
<stop offset="0.21" stop-color="#FCBB45"/>
<stop offset="0.38" stop-color="#F75274"/>
<stop offset="0.52" stop-color="#D53692"/>
<stop offset="0.74" stop-color="#8F39CE"/>
<stop offset="1" stop-color="#5B4FE9"/>
</linearGradient>
</defs>
</svg>
