<svg width="21" height="12" viewBox="0 0 21 12" fill="none" xmlns="http://www.w3.org/2000/svg">
<path d="M19.9996 6.74919C20.4138 6.74919 20.7496 6.4134 20.7496 5.99919C20.7496 5.58497 20.4138 5.24919 19.9996 5.24919V6.74919ZM8.99963 5.24919C8.58542 5.24919 8.24963 5.58498 8.24963 5.99919C8.24963 6.4134 8.58542 6.74919 8.99963 6.74919V5.24919ZM8.99963 8.86383H8.24963H8.99963ZM5.77964 10.4486L6.23714 9.85434L5.77964 10.4486ZM5.77964 1.54973L6.23714 2.14404L5.77964 1.54973ZM8.99963 3.13454H9.74963H8.99963ZM2.05836 4.41437L2.51586 5.00868L2.05836 4.41437ZM2.05836 7.584L1.60087 8.1783L2.05836 7.584ZM19.9996 5.24919L8.99963 5.24919V6.74919L19.9996 6.74919V5.24919ZM2.51586 5.00868L6.23714 2.14404L5.32215 0.955427L1.60087 3.82007L2.51586 5.00868ZM8.24963 3.13454L8.24963 8.86383H9.74963V3.13454H8.24963ZM6.23714 9.85434L2.51586 6.98969L1.60087 8.1783L5.32215 11.0429L6.23714 9.85434ZM8.24963 8.86383C8.24963 9.90113 7.0591 10.4871 6.23714 9.85434L5.32215 11.0429C7.13046 12.435 9.74963 11.1459 9.74963 8.86383H8.24963ZM6.23714 2.14404C7.0591 1.51129 8.24963 2.09724 8.24963 3.13454H9.74963C9.74963 0.852486 7.13046 -0.436615 5.32215 0.955427L6.23714 2.14404ZM1.60087 3.82007C0.170846 4.9209 0.170846 7.07747 1.60087 8.1783L2.51586 6.98969C1.86585 6.48932 1.86585 5.50906 2.51586 5.00868L1.60087 3.82007Z" fill="#00ACD7"/>
</svg>
