<svg width="43" height="33" viewBox="0 0 43 33" fill="none" xmlns="http://www.w3.org/2000/svg">
<g clip-path="url(#clip0_961_12350)">
<path d="M7.79397 32.9276V30.7375C7.79397 29.8997 7.27756 29.3512 6.39105 29.3512C5.9478 29.3512 5.46581 29.4957 5.13445 29.972C4.87624 29.5723 4.50614 29.3512 3.951 29.3512C3.5809 29.3512 3.21081 29.4617 2.91817 29.8615V29.4235H2.14355V32.9276H2.91817V30.9927C2.91817 30.3718 3.24954 30.0783 3.76595 30.0783C4.28237 30.0783 4.54057 30.4058 4.54057 30.9927V32.9276H5.31519V30.9927C5.31519 30.3718 5.68529 30.0783 6.16297 30.0783C6.67938 30.0783 6.93759 30.4058 6.93759 30.9927V32.9276H7.79397ZM19.2842 29.4235H18.0276V28.3646H17.2529V29.4235H16.5515V30.1166H17.2529V31.7241C17.2529 32.5278 17.5843 32.9999 18.4708 32.9999C18.8022 32.9999 19.1723 32.8893 19.4305 32.7447L19.2067 32.0856C18.9829 32.2302 18.7247 32.2684 18.5397 32.2684C18.1696 32.2684 18.0233 32.0473 18.0233 31.6858V30.1166H19.2799V29.4235H19.2842ZM25.8598 29.3469C25.4166 29.3469 25.1196 29.568 24.9346 29.8572V29.4192H24.16V32.9233H24.9346V30.9501C24.9346 30.3675 25.1928 30.0358 25.6748 30.0358C25.8211 30.0358 26.0061 30.0741 26.1568 30.1081L26.3805 29.3767C26.2256 29.3469 26.0061 29.3469 25.8598 29.3469ZM15.9232 29.7126C15.5531 29.4575 15.0367 29.3469 14.4815 29.3469C13.595 29.3469 13.0054 29.7849 13.0054 30.4781C13.0054 31.0607 13.4487 31.3924 14.2233 31.4987L14.5934 31.537C14.9979 31.6093 15.2217 31.7198 15.2217 31.9027C15.2217 32.1579 14.9248 32.3407 14.4084 32.3407C13.892 32.3407 13.4831 32.1579 13.2249 31.975L12.8548 32.5576C13.2593 32.851 13.8145 32.9956 14.3696 32.9956C15.4025 32.9956 15.9963 32.5193 15.9963 31.8644C15.9963 31.2436 15.5143 30.9161 14.7785 30.8055L14.4084 30.7673C14.077 30.729 13.8188 30.6567 13.8188 30.4398C13.8188 30.1847 14.077 30.0401 14.4858 30.0401C14.9291 30.0401 15.3723 30.2229 15.5961 30.3335L15.9232 29.7126ZM36.5324 29.3469C36.0891 29.3469 35.7922 29.568 35.6071 29.8572V29.4192H34.8325V32.9233H35.6071V30.9501C35.6071 30.3675 35.8653 30.0358 36.3473 30.0358C36.4936 30.0358 36.6787 30.0741 36.8293 30.1081L37.0531 29.3852C36.9025 29.3469 36.683 29.3469 36.5324 29.3469ZM26.6344 31.1755C26.6344 32.2344 27.3746 32.9999 28.5194 32.9999C29.0358 32.9999 29.4059 32.8893 29.776 32.6001L29.4059 31.9792C29.1089 32.2004 28.8163 32.3067 28.4806 32.3067C27.8523 32.3067 27.4091 31.8687 27.4091 31.1755C27.4091 30.5164 27.8523 30.0783 28.4806 30.0443C28.812 30.0443 29.1089 30.1549 29.4059 30.3718L29.776 29.7509C29.4059 29.4575 29.0358 29.3512 28.5194 29.3512C27.3746 29.3469 26.6344 30.1166 26.6344 31.1755ZM33.7997 31.1755V29.4235H33.0251V29.8615C32.7669 29.534 32.3968 29.3512 31.9148 29.3512C30.9164 29.3512 30.1418 30.1166 30.1418 31.1755C30.1418 32.2344 30.9164 32.9999 31.9148 32.9999C32.4312 32.9999 32.8013 32.817 33.0251 32.4896V32.9276H33.7997V31.1755ZM30.9551 31.1755C30.9551 30.5546 31.3596 30.0443 32.0267 30.0443C32.655 30.0443 33.0982 30.5206 33.0982 31.1755C33.0982 31.7964 32.655 32.3067 32.0267 32.3067C31.3639 32.2684 30.9551 31.7921 30.9551 31.1755ZM21.6855 29.3469C20.6527 29.3469 19.9125 30.0783 19.9125 31.1713C19.9125 32.2684 20.6527 32.9956 21.7242 32.9956C22.2406 32.9956 22.757 32.851 23.1659 32.5193L22.7958 31.9707C22.4988 32.1919 22.1287 32.3365 21.7629 32.3365C21.281 32.3365 20.8033 32.1153 20.6914 31.4987H23.3122C23.3122 31.3881 23.3122 31.3158 23.3122 31.2053C23.3466 30.0783 22.6796 29.3469 21.6855 29.3469ZM21.6855 30.0061C22.1675 30.0061 22.4988 30.2995 22.572 30.8438H20.7258C20.799 30.3718 21.1303 30.0061 21.6855 30.0061ZM40.9305 31.1755V28.0371H40.1559V29.8615C39.8977 29.534 39.5276 29.3512 39.0456 29.3512C38.0472 29.3512 37.2726 30.1166 37.2726 31.1755C37.2726 32.2344 38.0472 32.9999 39.0456 32.9999C39.562 32.9999 39.9321 32.817 40.1559 32.4896V32.9276H40.9305V31.1755ZM38.0859 31.1755C38.0859 30.5546 38.4904 30.0443 39.1575 30.0443C39.7858 30.0443 40.229 30.5206 40.229 31.1755C40.229 31.7964 39.7858 32.3067 39.1575 32.3067C38.4904 32.2684 38.0859 31.7921 38.0859 31.1755ZM12.1534 31.1755V29.4235H11.3787V29.8615C11.1205 29.534 10.7504 29.3512 10.2685 29.3512C9.27006 29.3512 8.49544 30.1166 8.49544 31.1755C8.49544 32.2344 9.27006 32.9999 10.2685 32.9999C10.7849 32.9999 11.155 32.817 11.3787 32.4896V32.9276H12.1534V31.1755ZM9.27436 31.1755C9.27436 30.5546 9.67888 30.0443 10.3459 30.0443C10.9742 30.0443 11.4175 30.5206 11.4175 31.1755C11.4175 31.7964 10.9742 32.3067 10.3459 32.3067C9.67888 32.2684 9.27436 31.7921 9.27436 31.1755Z" fill="#333333"/>
<path d="M27.3006 2.81055H15.6641V23.4696H27.3006V2.81055Z" fill="#FF5A00"/>
<path d="M16.4392 13.1405C16.4392 8.94317 18.4359 5.21791 21.5 2.81095C19.245 1.05889 16.4004 0 13.2976 0C5.94736 0 0 5.87706 0 13.1405C0 20.4039 5.94736 26.2809 13.2976 26.2809C16.4004 26.2809 19.245 25.222 21.5 23.47C18.4316 21.097 16.4392 17.3378 16.4392 13.1405Z" fill="#EB001B"/>
<path d="M43 13.1405C43 20.4039 37.0526 26.2809 29.7024 26.2809C26.5996 26.2809 23.755 25.222 21.5 23.47C24.6028 21.0588 26.5608 17.3378 26.5608 13.1405C26.5608 8.94317 24.5641 5.21791 21.5 2.81095C23.7507 1.05889 26.5953 0 29.6981 0C37.0526 0 43 5.91534 43 13.1405Z" fill="#F79E1B"/>
</g>
<defs>
<clipPath id="clip0_961_12350">
<rect width="43" height="33" fill="white"/>
</clipPath>
</defs>
</svg>
