<svg width="110" height="31" viewBox="0 0 110 31" fill="none" xmlns="http://www.w3.org/2000/svg">
<g clip-path="url(#clip0_961_12339)">
<path d="M40.9937 6.85107H34.9269C34.5117 6.85107 34.1586 7.15269 34.0939 7.56253L31.6402 23.1195C31.5914 23.4265 31.8291 23.7033 32.1405 23.7033H35.0369C35.452 23.7033 35.8051 23.4016 35.8698 22.9909L36.5316 18.7949C36.5955 18.3842 36.9494 18.0826 37.3637 18.0826H39.2843C43.2806 18.0826 45.5871 16.1487 46.1894 12.3165C46.4609 10.6399 46.201 9.32253 45.4159 8.39995C44.5536 7.38688 43.0243 6.85107 40.9937 6.85107ZM41.6936 12.5329C41.3619 14.7099 39.6985 14.7099 38.0902 14.7099H37.1748L37.817 10.6443C37.8552 10.3986 38.0681 10.2176 38.3164 10.2176H38.736C39.8316 10.2176 40.8651 10.2176 41.3991 10.8421C41.7176 11.2147 41.8152 11.7683 41.6936 12.5329Z" fill="#253B80"/>
<path d="M59.1288 12.4602H56.2236C55.9761 12.4602 55.7623 12.6412 55.7241 12.8869L55.5955 13.6995L55.3923 13.405C54.7634 12.4922 53.3609 12.187 51.9611 12.187C48.7507 12.187 46.0086 14.6185 45.4746 18.0294C45.1969 19.7309 45.5917 21.3578 46.5569 22.4924C47.4422 23.5356 48.709 23.9703 50.2161 23.9703C52.8029 23.9703 54.2373 22.307 54.2373 22.307L54.1078 23.1143C54.059 23.423 54.2968 23.6998 54.6064 23.6998H57.2233C57.6394 23.6998 57.9907 23.3981 58.0563 22.9874L59.6265 13.0439C59.6761 12.7379 59.4393 12.4602 59.1288 12.4602ZM55.0792 18.1146C54.7989 19.7743 53.4815 20.8885 51.8014 20.8885C50.9578 20.8885 50.2836 20.618 49.8507 20.1052C49.4213 19.596 49.2581 18.8713 49.3947 18.064C49.6564 16.4185 50.9959 15.2679 52.6503 15.2679C53.4753 15.2679 54.146 15.542 54.5878 16.0592C55.0304 16.5817 55.2061 17.3109 55.0792 18.1146Z" fill="#253B80"/>
<path d="M74.6013 12.4624H71.6819C71.4033 12.4624 71.1416 12.6008 70.9837 12.8323L66.9572 18.7635L65.2504 13.0639C65.1431 12.7072 64.814 12.4624 64.4414 12.4624H61.5725C61.2239 12.4624 60.9817 12.803 61.0926 13.1313L64.3083 22.5682L61.2851 26.836C61.0474 27.1722 61.2869 27.6344 61.6976 27.6344H64.6135C64.8903 27.6344 65.1493 27.4996 65.3063 27.2725L75.0165 13.2564C75.2489 12.921 75.0103 12.4624 74.6013 12.4624Z" fill="#253B80"/>
<path d="M84.2671 6.85107H78.1994C77.7851 6.85107 77.4321 7.15269 77.3673 7.56253L74.9136 23.1195C74.8648 23.4265 75.1026 23.7033 75.4121 23.7033H78.5259C78.815 23.7033 79.0626 23.4921 79.1078 23.2047L79.8042 18.7949C79.868 18.3842 80.222 18.0826 80.6363 18.0826H82.5559C86.5532 18.0826 88.8588 16.1487 89.462 12.3165C89.7343 10.6399 89.4726 9.32253 88.6875 8.39995C87.8262 7.38688 86.2977 6.85107 84.2671 6.85107ZM84.9671 12.5329C84.6362 14.7099 82.9729 14.7099 81.3637 14.7099H80.4491L81.0922 10.6443C81.1304 10.3986 81.3415 10.2176 81.5908 10.2176H82.0104C83.105 10.2176 84.1394 10.2176 84.6734 10.8421C84.9919 11.2147 85.0886 11.7683 84.9671 12.5329Z" fill="#179BD7"/>
<path d="M102.401 12.4622H99.4979C99.2486 12.4622 99.0366 12.6432 98.9994 12.8889L98.8707 13.7015L98.6667 13.4069C98.0377 12.4941 96.6361 12.189 95.2363 12.189C92.0259 12.189 89.2848 14.6205 88.7507 18.0314C88.474 19.7328 88.8669 21.3598 89.8321 22.4944C90.7192 23.5376 91.9842 23.9723 93.4914 23.9723C96.0781 23.9723 97.5126 22.309 97.5126 22.309L97.3831 23.1162C97.3343 23.4249 97.572 23.7017 97.8834 23.7017H100.499C100.914 23.7017 101.267 23.4001 101.332 22.9894L102.903 13.0459C102.95 12.7399 102.713 12.4622 102.401 12.4622ZM98.3518 18.1165C98.0732 19.7763 96.7541 20.8905 95.074 20.8905C94.2321 20.8905 93.5561 20.6199 93.1232 20.1072C92.6939 19.598 92.5324 18.8732 92.6673 18.066C92.9307 16.4204 94.2685 15.2699 95.9229 15.2699C96.7479 15.2699 97.4186 15.544 97.8603 16.0611C98.3048 16.5836 98.4804 17.3128 98.3518 18.1165Z" fill="#179BD7"/>
<path d="M105.827 7.2767L103.336 23.1185C103.288 23.4254 103.525 23.7022 103.835 23.7022H106.338C106.754 23.7022 107.107 23.4006 107.171 22.9898L109.627 7.43372C109.676 7.12678 109.438 6.84912 109.128 6.84912H106.325C106.078 6.85001 105.865 7.03098 105.827 7.2767Z" fill="#179BD7"/>
<path d="M6.44567 26.725L6.90963 23.7781L5.87616 23.7541H0.941238L4.37075 2.00874C4.3814 1.94309 4.416 1.88188 4.46656 1.83842C4.51713 1.79495 4.58188 1.771 4.6493 1.771H12.9703C15.7327 1.771 17.6391 2.34583 18.6344 3.48043C19.101 4.01269 19.3982 4.5689 19.5419 5.181C19.6927 5.82325 19.6954 6.59059 19.5481 7.52648L19.5374 7.59479V8.19446L20.0041 8.45882C20.397 8.66729 20.7093 8.90592 20.9488 9.17914C21.348 9.63422 21.6062 10.2126 21.7153 10.8983C21.8279 11.6036 21.7907 12.4428 21.6062 13.3929C21.3933 14.4858 21.0491 15.4376 20.5842 16.2165C20.1566 16.9341 19.612 17.5294 18.9653 17.9907C18.3479 18.4289 17.6142 18.7616 16.7848 18.9745C15.9811 19.1838 15.0647 19.2894 14.0596 19.2894H13.412C12.949 19.2894 12.4992 19.4562 12.1462 19.7551C11.7922 20.0603 11.558 20.4772 11.4862 20.9332L11.4374 21.1984L10.6177 26.3924L10.5804 26.5831C10.5707 26.6434 10.5538 26.6736 10.529 26.694C10.5068 26.7126 10.4749 26.725 10.4438 26.725H6.44567Z" fill="#253B80"/>
<path d="M20.4454 7.66357C20.4206 7.82236 20.3922 7.9847 20.3603 8.15148C19.2629 13.7854 15.5087 15.7317 10.714 15.7317H8.27267C7.6863 15.7317 7.19219 16.1575 7.10082 16.7359L5.8509 24.663L5.49695 26.91C5.43751 27.2897 5.73025 27.6321 6.11348 27.6321H10.4434C10.9561 27.6321 11.3917 27.2595 11.4724 26.7539L11.515 26.5339L12.3303 21.3603L12.3826 21.0765C12.4624 20.5691 12.8989 20.1965 13.4116 20.1965H14.0592C18.2543 20.1965 21.5383 18.4933 22.4982 13.5645C22.8991 11.5056 22.6915 9.7864 21.6306 8.57728C21.3094 8.21269 20.9111 7.91019 20.4454 7.66357Z" fill="#179BD7"/>
<path d="M19.2983 7.20588C19.1306 7.15709 18.9576 7.11274 18.7802 7.07282C18.6019 7.03379 18.4191 6.99919 18.2311 6.96903C17.5729 6.86258 16.8516 6.81201 16.079 6.81201H9.55705C9.39648 6.81201 9.2439 6.84838 9.10729 6.91403C8.80656 7.05862 8.58301 7.34338 8.5289 7.69201L7.14148 16.4796L7.10156 16.736C7.19293 16.1576 7.68705 15.7318 8.27342 15.7318H10.7147C15.5095 15.7318 19.2637 13.7846 20.361 8.15153C20.3938 7.98475 20.4213 7.82241 20.4462 7.66362C20.1685 7.51637 19.8678 7.3904 19.544 7.28306C19.4641 7.25645 19.3816 7.23072 19.2983 7.20588Z" fill="#222D65"/>
<path d="M8.52855 7.69255C8.58267 7.34392 8.80622 7.05916 9.10694 6.91545C9.24444 6.84981 9.39613 6.81344 9.5567 6.81344H16.0786C16.8513 6.81344 17.5725 6.864 18.2307 6.97045C18.4188 7.00062 18.6015 7.03521 18.7798 7.07424C18.9573 7.11416 19.1302 7.15852 19.2979 7.20731C19.3813 7.23215 19.4638 7.25787 19.5445 7.2836C19.8683 7.39094 20.169 7.51779 20.4467 7.66416C20.7732 5.58215 20.444 4.16457 19.3183 2.88094C18.0773 1.46779 15.8373 0.862793 12.9711 0.862793H4.65017C4.06468 0.862793 3.56525 1.2886 3.47476 1.86787L0.00887631 23.8368C-0.0594301 24.2715 0.275892 24.6636 0.714118 24.6636H5.8513L7.14113 16.4801L8.52855 7.69255Z" fill="#253B80"/>
</g>
<defs>
<clipPath id="clip0_961_12339">
<rect width="110" height="29.2742" fill="white" transform="translate(0 0.862793)"/>
</clipPath>
</defs>
</svg>
