<svg width="21" height="12" viewBox="0 0 21 12" fill="none" xmlns="http://www.w3.org/2000/svg">
<path d="M0.999424 5.25008C0.585211 5.25008 0.249424 5.58586 0.249424 6.00008C0.249424 6.41429 0.585211 6.75008 0.999424 6.75008L0.999424 5.25008ZM11.9994 6.75008C12.4136 6.75008 12.7494 6.41429 12.7494 6.00008C12.7494 5.58586 12.4136 5.25008 11.9994 5.25008L11.9994 6.75008ZM11.9994 3.13543L12.7494 3.13543L11.9994 3.13543ZM15.2194 1.55063L14.7619 2.14493L15.2194 1.55063ZM15.2194 10.4495L14.7619 9.85523L15.2194 10.4495ZM11.9994 8.86472L11.2494 8.86472L11.9994 8.86472ZM18.9407 7.58489L18.4832 6.99059L18.9407 7.58489ZM18.9407 4.41527L19.3982 3.82097L18.9407 4.41527ZM0.999424 6.75008L11.9994 6.75008L11.9994 5.25008L0.999424 5.25008L0.999424 6.75008ZM18.4832 6.99059L14.7619 9.85523L15.6769 11.0438L19.3982 8.1792L18.4832 6.99059ZM12.7494 8.86472L12.7494 3.13543L11.2494 3.13543L11.2494 8.86472L12.7494 8.86472ZM14.7619 2.14493L18.4832 5.00957L19.3982 3.82097L15.6769 0.956321L14.7619 2.14493ZM12.7494 3.13543C12.7494 2.09814 13.94 1.51218 14.7619 2.14493L15.6769 0.956321C13.8686 -0.435721 11.2494 0.853377 11.2494 3.13543L12.7494 3.13543ZM14.7619 9.85523C13.94 10.488 12.7494 9.90202 12.7494 8.86472L11.2494 8.86472C11.2494 11.1468 13.8686 12.4359 15.6769 11.0438L14.7619 9.85523ZM19.3982 8.1792C20.8282 7.07837 20.8282 4.9218 19.3982 3.82097L18.4832 5.00957C19.1332 5.50995 19.1332 6.49021 18.4832 6.99059L19.3982 8.1792Z" fill="#00ACD7"/>
</svg>
