<svg width="22" height="23" viewBox="0 0 22 23" fill="none" xmlns="http://www.w3.org/2000/svg">
<path d="M10.9999 22.2856C17.0593 22.2856 21.9714 17.3736 21.9714 11.3142C21.9714 5.25485 17.0593 0.342773 10.9999 0.342773C4.94058 0.342773 0.0285034 5.25485 0.0285034 11.3142C0.0285034 17.3736 4.94058 22.2856 10.9999 22.2856Z" fill="url(#paint0_linear_961_12326)"/>
<path d="M17.0636 7.55468C16.6772 7.7208 16.2712 7.83681 15.8554 7.89988C16.0505 7.89988 16.3357 7.51715 16.4482 7.37457C16.6299 7.15253 16.7674 6.89781 16.8535 6.62413C16.8535 6.62413 16.8535 6.5791 16.8535 6.5641C16.8443 6.55883 16.834 6.55605 16.8234 6.55605C16.8129 6.55605 16.8025 6.55883 16.7934 6.5641C16.3383 6.80711 15.8542 6.9912 15.3526 7.11192C15.3377 7.12048 15.3209 7.12498 15.3038 7.12498C15.2867 7.12498 15.2699 7.12048 15.255 7.11192C15.2189 7.06585 15.1787 7.02315 15.1349 6.98434C14.9252 6.80931 14.6898 6.66757 14.437 6.5641C14.0999 6.42514 13.7352 6.36607 13.3714 6.3915C13.0175 6.41446 12.6723 6.51161 12.3583 6.67666C12.0369 6.84272 11.7543 7.07506 11.5292 7.35835C11.3041 7.64164 11.1416 7.96945 11.0526 8.32013C10.985 8.6595 10.985 9.00885 11.0526 9.34823C11.0526 9.40826 11.0526 9.41577 11 9.40826C9.10074 9.21381 7.34249 8.31729 6.06964 6.89429C6.01711 6.83426 5.98709 6.83426 5.93456 6.89429C5.67909 7.36777 5.58275 7.91089 5.65978 8.44335C5.73681 8.97581 5.98312 9.46935 6.36231 9.85102C6.45986 9.94107 6.55742 10.0311 6.66248 10.1137C6.33333 10.0878 6.01229 9.99857 5.71693 9.85102C5.65689 9.85102 5.62688 9.85102 5.61937 9.89605C5.61223 9.99097 5.61223 10.0863 5.61937 10.1812C5.6763 10.6242 5.85022 11.0441 6.12324 11.3975C6.39627 11.751 6.75854 12.0254 7.17278 12.1924C7.27275 12.2395 7.37885 12.2724 7.48797 12.2899C7.18024 12.3452 6.86514 12.3452 6.55742 12.2899C6.48988 12.2899 6.45986 12.29 6.48988 12.38C6.64976 12.7971 6.91365 13.1663 7.25647 13.4527C7.59929 13.739 8.00964 13.9329 8.44853 14.016C8.53858 14.016 8.62864 14.016 8.71869 14.016C8.80874 14.016 8.71869 14.016 8.71869 14.016C8.336 14.3599 7.87476 14.6047 7.37541 14.7289C6.72432 14.9618 6.03061 15.0514 5.34171 14.9915C5.23665 14.9915 5.21414 14.9915 5.18412 14.9915C5.1541 14.9915 5.18412 15.0366 5.18412 15.0591C5.31977 15.1512 5.46003 15.2364 5.60436 15.3142C6.03652 15.5424 6.49189 15.7235 6.96266 15.8545C8.17598 16.2205 9.46414 16.2613 10.6982 15.9729C11.9322 15.6845 13.0689 15.0769 13.9943 14.2111C14.6543 13.4982 15.1666 12.6617 15.5015 11.7497C15.8363 10.8378 15.9872 9.86855 15.9454 8.89796C15.9454 8.82292 16.0355 8.77789 16.0955 8.74037C16.4595 8.45521 16.7805 8.11906 17.0486 7.74229C17.0935 7.69027 17.1176 7.62342 17.1161 7.55468C17.1161 7.55468 17.1161 7.53216 17.0636 7.55468Z" fill="white"/>
<defs>
<linearGradient id="paint0_linear_961_12326" x1="18.7595" y1="3.55466" x2="3.24039" y2="19.0738" gradientUnits="userSpaceOnUse">
<stop stop-color="#33CCFF"/>
<stop offset="1" stop-color="#337FFF"/>
</linearGradient>
</defs>
</svg>
