<svg width="80" height="27" viewBox="0 0 80 27" fill="none" xmlns="http://www.w3.org/2000/svg">
<g clip-path="url(#clip0_961_12332)">
<path d="M34.6671 26.1257H28.1865L32.2399 0.957031H38.7201L34.6671 26.1257Z" fill="#00579F"/>
<path d="M58.1596 1.57153C56.8814 1.06228 54.854 0.5 52.3471 0.5C45.9473 0.5 41.4407 3.92705 41.413 8.82669C41.3599 12.4416 44.6397 14.4495 47.0927 15.6548C49.5999 16.8865 50.4522 17.6904 50.4522 18.7883C50.4267 20.4744 48.4262 21.2516 46.5604 21.2516C43.9731 21.2516 42.5867 20.8509 40.4799 19.9128L39.6266 19.5107L38.7197 25.1605C40.2397 25.8559 43.04 26.473 45.9473 26.5C52.7472 26.5 57.1741 23.126 57.2266 17.9046C57.2524 15.0395 55.5206 12.8441 51.7868 11.0502C49.5202 9.89858 48.1321 9.12207 48.1321 7.94377C48.1587 6.8726 49.3061 5.77545 51.8648 5.77545C53.9716 5.72171 55.5195 6.23025 56.6921 6.73915L57.2783 7.00641L58.1596 1.57153Z" fill="#00579F"/>
<path d="M66.7726 17.2094C67.3063 15.7634 69.3599 10.1674 69.3599 10.1674C69.333 10.2211 69.8926 8.69476 70.2126 7.75775L70.6655 9.92643C70.6655 9.92643 71.8927 15.951 72.1592 17.2094C71.1464 17.2094 68.0526 17.2094 66.7726 17.2094ZM74.772 0.957031H69.7593C68.2135 0.957031 67.0391 1.41184 66.3721 3.04529L56.7461 26.1254H63.5459C63.5459 26.1254 64.6654 23.019 64.9061 22.3499C65.652 22.3499 72.2669 22.3499 73.2266 22.3499C73.4126 23.2336 73.9998 26.1254 73.9998 26.1254H80.0002L74.772 0.957031Z" fill="#00579F"/>
<path d="M22.7734 0.957031L16.4268 18.1197L15.7332 14.6389C14.5599 10.6225 10.88 6.25881 6.77344 4.08906L12.5867 26.099H19.4397L29.626 0.957031H22.7734Z" fill="#00579F"/>
<path d="M10.5333 0.957031H0.106668L0 1.46557C8.13339 3.55418 13.52 8.58871 15.7331 14.64L13.4665 3.07269C13.0933 1.46522 11.9465 1.01006 10.5333 0.957031Z" fill="#FAA61A"/>
</g>
<defs>
<clipPath id="clip0_961_12332">
<rect width="80" height="26" fill="white" transform="translate(0 0.5)"/>
</clipPath>
</defs>
</svg>
